<svg width="220" height="52" viewBox="0 0 220 52" fill="none" xmlns="http://www.w3.org/2000/svg">
<path d="M40.1148 3.23145H3.3457V49.1563H40.1148V3.23145Z" fill="white"/>
<path d="M41.9519 9.74889V0H7.64515C3.42283 0 0 3.38562 0 7.56175V9.74889V18.4965V44.7157C0 48.7386 3.29743 52 7.3649 52H45.9909V9.74889H41.9519ZM30.7868 43.5929C28.7207 44.4944 27.644 44.8821 25.0685 44.8821C22.1169 44.8821 19.8824 44.4119 17.5351 43.178C15.1873 41.9441 13.3432 40.2264 12.0018 38.0232C10.66 35.8214 9.98965 33.3268 9.98965 30.5405C9.98965 27.7545 10.66 25.2605 12.0018 23.0575C13.3432 20.8555 15.1873 19.1369 17.5351 17.9032C19.8824 16.6693 22.5317 16.0523 25.4834 16.0523C27.6164 16.0523 29.5501 16.6393 31.6165 17.541C33.6822 18.4434 34.9646 19.5043 36.6534 21.087L31.8237 26.6842C29.9991 24.5085 27.3204 22.9039 25.4834 22.9624C23.9548 23.0112 23.0029 23.237 21.8093 23.9C20.6152 24.5637 20.0368 25.5063 19.3799 26.7134C18.7221 27.9212 18.58 28.9751 18.58 30.5405C18.58 32.1066 18.9887 33.3307 19.6465 34.5376C20.3036 35.7456 21.2078 36.4245 22.4018 37.0875C23.5954 37.7512 25.1517 37.7717 26.0462 37.6442C28.6516 37.2726 29.8388 36.3681 31.8237 34.4793L36.6831 39.5196C35.3148 41.2179 32.8527 42.6912 30.7868 43.5929ZM37.117 9.92187H7.40968C6.00256 9.92187 4.86177 8.79356 4.86177 7.4016C4.86177 6.00986 6.00256 4.88132 7.40968 4.88132H37.117V9.92187Z" fill="#00C577"/>
<path d="M67.42 38.7022C65.7701 37.8348 64.474 36.6284 63.5316 35.08C62.5886 33.5323 62.1177 31.7797 62.1177 29.8212C62.1177 27.864 62.5886 26.1111 63.5316 24.5632C64.474 23.0155 65.7701 21.8079 67.42 20.941C69.0696 20.0737 70.9309 19.6401 73.0051 19.6401C74.815 19.6401 76.4456 19.9576 77.8975 20.5913C79.3492 21.2256 80.5557 22.1392 81.5174 23.3323L77.9541 26.5212C76.6719 24.9921 75.1165 24.2275 73.2879 24.2275C72.2134 24.2275 71.2564 24.4609 70.4176 24.9269C69.5785 25.3931 68.9282 26.0503 68.4665 26.8986C68.0043 27.7474 67.7735 28.7211 67.7735 29.821C67.7735 30.922 68.0043 31.896 68.4665 32.7439C68.9282 33.5931 69.5785 34.2501 70.4176 34.7158C71.2564 35.1823 72.2134 35.415 73.2879 35.415C75.1165 35.415 76.6719 34.651 77.9541 33.1218L81.5174 36.3104C80.5557 37.5037 79.3492 38.4176 77.8975 39.0517C76.4456 39.6853 74.815 40.0026 73.0051 40.0026C70.9309 40.0028 69.0696 39.5692 67.42 38.7022Z" fill="#00C577"/>
<path d="M91.0051 24.7177C91.8817 24.3727 92.8858 24.2002 94.0169 24.2002V28.9829C93.5264 28.927 93.1212 28.8994 92.8009 28.8994C91.6507 28.8994 90.7506 29.2065 90.1 29.8221C89.4497 30.4376 89.1245 31.3794 89.1245 32.6473V39.6118H83.7515V24.452H88.8699V26.2701C89.4165 25.5803 90.1281 25.0627 91.0051 24.7177Z" fill="#00C577"/>
<path d="M111.663 33.3742H100.521C100.747 34.1575 101.185 34.759 101.836 35.1784C102.486 35.5977 103.301 35.8078 104.282 35.8078C105.017 35.8078 105.654 35.7052 106.191 35.5001C106.728 35.2949 107.27 34.9597 107.817 34.4934L110.645 37.4021C109.156 39.0435 106.978 39.8639 104.113 39.8639C102.321 39.8639 100.747 39.5282 99.39 38.857C98.0324 38.1856 96.9812 37.2534 96.2368 36.06C95.4918 34.8669 95.1196 33.5146 95.1196 32.0042C95.1196 30.5129 95.4824 29.1748 96.2083 27.9905C96.934 26.8065 97.9379 25.8787 99.2203 25.2075C100.502 24.5364 101.944 24.2007 103.547 24.2007C105.074 24.2007 106.46 24.5131 107.704 25.1376C108.948 25.7626 109.933 26.6669 110.659 27.8507C111.385 29.0349 111.748 30.4378 111.748 32.0601C111.748 32.0972 111.719 32.5352 111.663 33.3742ZM101.496 28.6754C100.94 29.1419 100.587 29.776 100.436 30.577H106.714C106.563 29.7758 106.21 29.1419 105.654 28.6754C105.097 28.2097 104.405 27.9761 103.575 27.9761C102.745 27.9761 102.052 28.2097 101.496 28.6754Z" fill="#00C577"/>
<path d="M130.525 18.8579V39.6117H125.407V38.1014C124.407 39.2758 122.908 39.8638 120.91 39.8638C119.515 39.8638 118.243 39.542 117.093 38.8984C115.943 38.255 115.033 37.3372 114.364 36.1436C113.694 34.9505 113.36 33.5704 113.36 32.0041C113.36 30.4373 113.694 29.0628 114.364 27.8785C115.033 26.6947 115.943 25.7856 117.093 25.1512C118.243 24.5176 119.515 24.2003 120.91 24.2003C122.739 24.2003 124.153 24.7228 125.152 25.7667V18.8581H130.525V18.8579ZM124.332 34.6749C124.936 34.0313 125.237 33.1412 125.237 32.0038C125.237 30.8851 124.94 30.0083 124.347 29.3747C123.753 28.7411 122.984 28.4238 122.042 28.4238C121.099 28.4238 120.326 28.7408 119.723 29.3747C119.119 30.0086 118.818 30.8851 118.818 32.0038C118.818 33.1412 119.119 34.0313 119.723 34.6749C120.326 35.3184 121.099 35.6401 122.042 35.6401C122.965 35.6401 123.729 35.3184 124.332 34.6749Z" fill="#00C577"/>
<path d="M134.287 21.9617C133.683 21.4211 133.382 20.7499 133.382 19.948C133.382 19.1465 133.683 18.4751 134.287 17.9341C134.89 17.3935 135.682 17.123 136.662 17.123C137.642 17.123 138.434 17.3795 139.038 17.8923C139.641 18.4052 139.943 19.0624 139.943 19.8641C139.943 20.7031 139.641 21.398 139.038 21.9477C138.434 22.4979 137.642 22.773 136.662 22.773C135.682 22.773 134.89 22.5028 134.287 21.9617ZM133.976 24.4512H139.349V39.6111H133.976V24.4512Z" fill="#00C577"/>
<path d="M160.954 31.2342C161.595 32.0643 161.915 33.0663 161.915 34.2412C161.915 35.9567 161.217 37.2806 159.822 38.2129C158.427 39.1456 156.41 39.6114 153.771 39.6114H143.081V20.0322H153.205C155.731 20.0322 157.654 20.4938 158.974 21.4167C160.293 22.3397 160.953 23.5845 160.953 25.1506C160.953 26.0834 160.722 26.9179 160.261 27.6541C159.799 28.391 159.144 28.9736 158.295 29.4023C159.426 29.7939 160.312 30.405 160.954 31.2342ZM148.624 24.0321V27.8082H152.47C154.355 27.8082 155.298 27.1741 155.298 25.9064C155.298 24.6569 154.355 24.0321 152.47 24.0321H148.624ZM156.259 33.626C156.259 32.3019 155.279 31.6398 153.318 31.6398H148.624V35.6117H153.318C155.279 35.6117 156.259 34.9501 156.259 33.626Z" fill="#606060"/>
<path d="M167.826 38.8563C166.506 38.1851 165.474 37.2529 164.729 36.0593C163.984 34.8662 163.612 33.5141 163.612 32.0039C163.612 30.5124 163.984 29.1696 164.729 27.9761C165.473 26.7829 166.501 25.8554 167.811 25.1933C169.122 24.5315 170.606 24.2002 172.265 24.2002C173.924 24.2002 175.413 24.5315 176.733 25.1933C178.053 25.8554 179.081 26.7783 179.816 27.9623C180.551 29.1463 180.919 30.4933 180.919 32.0039C180.919 33.5143 180.551 34.8662 179.816 36.0593C179.081 37.2529 178.053 38.1851 176.733 38.8563C175.413 39.5274 173.924 39.8634 172.265 39.8634C170.625 39.8636 169.145 39.5274 167.826 38.8563ZM174.584 34.675C175.188 34.0314 175.489 33.1413 175.489 32.0039C175.489 30.8852 175.188 30.0084 174.584 29.3748C173.98 28.7409 173.208 28.4239 172.266 28.4239C171.322 28.4239 170.55 28.7409 169.946 29.3748C169.343 30.0086 169.041 30.8852 169.041 32.0039C169.041 33.1413 169.343 34.0314 169.946 34.675C170.55 35.3184 171.322 35.6401 172.266 35.6401C173.208 35.6401 173.98 35.3184 174.584 34.675Z" fill="#606060"/>
<path d="M186.659 38.8563C185.339 38.1851 184.307 37.2529 183.562 36.0593C182.817 34.8662 182.445 33.5141 182.445 32.0039C182.445 30.5124 182.817 29.1696 183.562 27.9761C184.307 26.7829 185.334 25.8554 186.645 25.1933C187.955 24.5315 189.439 24.2002 191.099 24.2002C192.757 24.2002 194.247 24.5315 195.567 25.1933C196.886 25.8554 197.914 26.7783 198.649 27.9623C199.384 29.1463 199.752 30.4933 199.752 32.0039C199.752 33.5143 199.384 34.8662 198.649 36.0593C197.914 37.2529 196.886 38.1851 195.567 38.8563C194.247 39.5274 192.757 39.8634 191.099 39.8634C189.459 39.8636 187.978 39.5274 186.659 38.8563ZM193.418 34.675C194.021 34.0314 194.323 33.1413 194.323 32.0039C194.323 30.8852 194.021 30.0084 193.418 29.3748C192.814 28.7409 192.041 28.4239 191.099 28.4239C190.156 28.4239 189.383 28.7409 188.78 29.3748C188.176 30.0086 187.875 30.8852 187.875 32.0039C187.875 33.1413 188.176 34.0314 188.78 34.675C189.383 35.3184 190.156 35.6401 191.099 35.6401C192.041 35.6401 192.814 35.3184 193.418 34.675Z" fill="#606060"/>
<path d="M209.197 34.2975L207.614 35.8918V39.612H202.241V18.8579H207.614V29.7381L213.1 24.4519H219.463L213.1 30.941L220 39.612H213.496L209.197 34.2975Z" fill="#606060"/>
</svg>
